<?xml version="1.0" encoding="UTF-8" standalone="no"?>
<!-- Created with Inkscape (http://www.inkscape.org/) -->

<svg
   width="200mm"
   height="150mm"
   viewBox="0 0 708.66142 531.49606"
   id="svg2"
   version="1.1"
   inkscape:version="1.1 (c4e8f9ed74, 2021-05-24)"
   sodipodi:docname="errors.svg"
   inkscape:export-filename="/home/cullyn/notes/statistics/chapters/images/errors.png"
   inkscape:export-xdpi="96"
   inkscape:export-ydpi="96"
   xmlns:inkscape="http://www.inkscape.org/namespaces/inkscape"
   xmlns:sodipodi="http://sodipodi.sourceforge.net/DTD/sodipodi-0.dtd"
   xmlns="http://www.w3.org/2000/svg"
   xmlns:svg="http://www.w3.org/2000/svg"
   xmlns:rdf="http://www.w3.org/1999/02/22-rdf-syntax-ns#"
   xmlns:cc="http://creativecommons.org/ns#"
   xmlns:dc="http://purl.org/dc/elements/1.1/">
  <sodipodi:namedview
     id="base"
     pagecolor="#ffffff"
     bordercolor="#666666"
     borderopacity="1.0"
     inkscape:pageopacity="0.0"
     inkscape:pageshadow="2"
     inkscape:zoom="1.0960155"
     inkscape:cx="453.91694"
     inkscape:cy="229.46756"
     inkscape:document-units="px"
     inkscape:current-layer="layer1"
     showgrid="true"
     inkscape:window-width="1736"
     inkscape:window-height="1219"
     inkscape:window-x="1338"
     inkscape:window-y="309"
     inkscape:window-maximized="1"
     gridtolerance="1"
     inkscape:pagecheckerboard="0">
    <inkscape:grid
       type="xygrid"
       id="grid3336" />
  </sodipodi:namedview>
  <defs
     id="defs4">
    <rect
       x="470"
       y="42.773011"
       width="231.21431"
       height="153.24024"
       id="rect25914" />
    <marker
       inkscape:isstock="true"
       style="overflow:visible"
       id="marker6191"
       refX="0"
       refY="0"
       orient="auto"
       inkscape:stockid="Arrow1Mend">
      <path
         transform="matrix(-0.4,0,0,-0.4,-4,0)"
         style="fill:#00a100;fill-opacity:1;fill-rule:evenodd;stroke:#00a100;stroke-width:1pt;stroke-opacity:1"
         d="M 0,0 5,-5 -12.5,0 5,5 0,0 Z"
         id="path6193"
         inkscape:connector-curvature="0" />
    </marker>
    <marker
       inkscape:isstock="true"
       style="overflow:visible"
       id="marker6181"
       refX="0"
       refY="0"
       orient="auto"
       inkscape:stockid="Arrow1Mstart">
      <path
         transform="matrix(0.4,0,0,0.4,4,0)"
         style="fill:#00a100;fill-opacity:1;fill-rule:evenodd;stroke:#00a100;stroke-width:1pt;stroke-opacity:1"
         d="M 0,0 5,-5 -12.5,0 5,5 0,0 Z"
         id="path6183"
         inkscape:connector-curvature="0" />
    </marker>
    <marker
       inkscape:stockid="Arrow1Mstart"
       orient="auto"
       refY="0"
       refX="0"
       id="marker5038"
       style="overflow:visible"
       inkscape:isstock="true">
      <path
         id="path5040"
         d="M 0,0 5,-5 -12.5,0 5,5 0,0 Z"
         style="fill:#000000;fill-opacity:1;fill-rule:evenodd;stroke:#000000;stroke-width:1pt;stroke-opacity:1"
         transform="matrix(0.4,0,0,0.4,4,0)"
         inkscape:connector-curvature="0" />
    </marker>
    <marker
       inkscape:stockid="Arrow1Mend"
       orient="auto"
       refY="0"
       refX="0"
       id="marker4888"
       style="overflow:visible"
       inkscape:isstock="true">
      <path
         id="path4890"
         d="M 0,0 5,-5 -12.5,0 5,5 0,0 Z"
         style="fill:#000000;fill-opacity:1;fill-rule:evenodd;stroke:#000000;stroke-width:1pt;stroke-opacity:1"
         transform="matrix(-0.4,0,0,-0.4,-4,0)"
         inkscape:connector-curvature="0" />
    </marker>
    <marker
       inkscape:stockid="Arrow2Send"
       orient="auto"
       refY="0"
       refX="0"
       id="Arrow2Send"
       style="overflow:visible"
       inkscape:isstock="true">
      <path
         id="path4391"
         style="fill:#000000;fill-opacity:1;fill-rule:evenodd;stroke:#000000;stroke-width:0.625;stroke-linejoin:round;stroke-opacity:1"
         d="M 8.7185878,4.0337352 -2.2072895,0.01601326 8.7185884,-4.0017078 c -1.7454984,2.3720609 -1.7354408,5.6174519 -6e-7,8.035443 z"
         transform="matrix(-0.3,0,0,-0.3,0.69,0)"
         inkscape:connector-curvature="0" />
    </marker>
    <marker
       inkscape:stockid="Arrow2Lend"
       orient="auto"
       refY="0"
       refX="0"
       id="Arrow2Lend"
       style="overflow:visible"
       inkscape:isstock="true">
      <path
         id="path4379"
         style="fill:#000000;fill-opacity:1;fill-rule:evenodd;stroke:#000000;stroke-width:0.625;stroke-linejoin:round;stroke-opacity:1"
         d="M 8.7185878,4.0337352 -2.2072895,0.01601326 8.7185884,-4.0017078 c -1.7454984,2.3720609 -1.7354408,5.6174519 -6e-7,8.035443 z"
         transform="matrix(-1.1,0,0,-1.1,-1.1,0)"
         inkscape:connector-curvature="0" />
    </marker>
    <marker
       inkscape:stockid="Arrow1Send"
       orient="auto"
       refY="0"
       refX="0"
       id="Arrow1Send"
       style="overflow:visible"
       inkscape:isstock="true">
      <path
         id="path4373"
         d="M 0,0 5,-5 -12.5,0 5,5 0,0 Z"
         style="fill:#000000;fill-opacity:1;fill-rule:evenodd;stroke:#000000;stroke-width:1pt;stroke-opacity:1"
         transform="matrix(-0.2,0,0,-0.2,-1.2,0)"
         inkscape:connector-curvature="0" />
    </marker>
    <marker
       inkscape:stockid="Arrow2Lstart"
       orient="auto"
       refY="0"
       refX="0"
       id="Arrow2Lstart"
       style="overflow:visible"
       inkscape:isstock="true">
      <path
         id="path4376"
         style="fill:#000000;fill-opacity:1;fill-rule:evenodd;stroke:#000000;stroke-width:0.625;stroke-linejoin:round;stroke-opacity:1"
         d="M 8.7185878,4.0337352 -2.2072895,0.01601326 8.7185884,-4.0017078 c -1.7454984,2.3720609 -1.7354408,5.6174519 -6e-7,8.035443 z"
         transform="matrix(1.1,0,0,1.1,1.1,0)"
         inkscape:connector-curvature="0" />
    </marker>
    <clipPath
       id="clipPath">
      <rect
         style="fill:none;fill-opacity:0.49659861;stroke:#000000;stroke-opacity:1"
         id="rect4212"
         width="40"
         height="160"
         x="390"
         y="222.36218" />
    </clipPath>
    <clipPath
       id="clipPathx">
      <rect
         y="232.36218"
         x="390"
         height="150"
         width="30"
         id="rect4237"
         style="fill:none;fill-opacity:0.49659861;stroke:#000000;stroke-opacity:1" />
    </clipPath>
    <clipPath
       clipPathUnits="userSpaceOnUse"
       id="clipPath4272">
      <rect
         style="fill:none;fill-opacity:1;stroke:#000000;stroke-opacity:1"
         id="rect4274"
         width="40"
         height="150"
         x="390"
         y="232.36218" />
    </clipPath>
    <clipPath
       clipPathUnits="userSpaceOnUse"
       id="clipPath4286">
      <rect
         style="fill:#ffc4c4;fill-opacity:1;stroke:#000000;stroke-width:1;stroke-miterlimit:4;stroke-dasharray:none;stroke-opacity:1"
         id="rect4288"
         width="30"
         height="180"
         x="522"
         y="212.36218" />
    </clipPath>
    <clipPath
       clipPathUnits="userSpaceOnUse"
       id="clipPath4301">
      <path
         clip-path="none"
         id="path4303"
         title="exp(-x*x/2)"
         d="m -226.01135,380.62428 c 4.46717,-0.66625 8.93434,-1.66947 13.40151,-3.43745 4.46717,-1.76797 8.93434,-4.31577 13.40152,-8.22318 4.46717,-3.90741 8.93434,-9.21508 13.40151,-16.33079 4.46717,-7.11571 8.93434,-16.08905 13.40151,-26.58619 4.46717,-10.49713 8.93434,-22.53056 13.40152,-34.64947 4.46717,-12.11891 8.93434,-24.26212 13.40151,-34.27783 4.46717,-10.01571 8.93434,-17.79752 13.40151,-21.71829 4.46717,-3.92077 8.93435,-3.91325 13.40152,0 4.46717,3.91325 8.93434,11.70686 13.40151,21.71829 4.46717,10.01144 8.93434,22.15892 13.40151,34.27783 4.46718,12.11891 8.93435,24.14946 13.40152,34.64947 4.46717,10.50001 8.93434,19.46694 13.40151,26.58619 4.46717,7.11925 8.93434,12.42065 13.40151,16.33079 4.46718,3.91014 8.93435,6.45364 13.40152,8.22318 4.46717,1.76955 8.93434,2.7712 13.40151,3.43745"
         style="fill:#ffc4c4;fill-opacity:1;stroke:#000000;stroke-width:1.29366648;stroke-opacity:1"
         inkscape:connector-curvature="0" />
    </clipPath>
    <clipPath
       clipPathUnits="userSpaceOnUse"
       id="clipPath4309">
      <rect
         style="fill:none;fill-opacity:1;stroke:#000000;stroke-width:0.93233514;stroke-miterlimit:4;stroke-dasharray:none;stroke-opacity:1"
         id="rect4311"
         width="26.067665"
         height="180.06766"
         x="-266.03384"
         y="212.32835" />
    </clipPath>
    <clipPath
       clipPathUnits="userSpaceOnUse"
       id="clipPath4346">
      <path
         inkscape:connector-curvature="0"
         style="fill:none;fill-opacity:1;stroke:#000000;stroke-width:1.29366648;stroke-opacity:1"
         d="m -150.01135,380.62428 c 4.46717,-0.66625 8.93434,-1.66947 13.40151,-3.43745 4.46717,-1.76797 8.93434,-4.31577 13.40152,-8.22318 4.46717,-3.90741 8.93434,-9.21508 13.40151,-16.33079 4.46717,-7.11571 8.93434,-16.08905 13.40151,-26.58619 4.46717,-10.49713 8.93434,-22.53056 13.40152,-34.64947 4.46717,-12.11891 8.93434,-24.26212 13.40151,-34.27783 4.46717,-10.01571 8.93434,-17.79752 13.40151,-21.71829 4.46717,-3.92077 8.93435,-3.91325 13.40152,0 4.46717,3.91325 8.93434,11.70686 13.40151,21.71829 4.46717,10.01144 8.93434,22.15892 13.40151,34.27783 4.46718,12.11891 8.93435,24.14946 13.40152,34.64947 4.46717,10.50001 8.93434,19.46694 13.40151,26.58619 4.46717,7.11925 8.93434,12.42065 13.40151,16.33079 4.46718,3.91014 8.93435,6.45364 13.40152,8.22318 4.46717,1.76955 8.93434,2.7712 13.40151,3.43745"
         title="exp(-x*x/2)"
         id="path4348"
         clip-path="url(#clipPath4301)"
         transform="translate(-154,0)" />
    </clipPath>
  </defs>
  <metadata
     id="metadata7">
    <rdf:RDF>
      <cc:Work
         rdf:about="">
        <dc:format>image/svg+xml</dc:format>
        <dc:type
           rdf:resource="http://purl.org/dc/dcmitype/StillImage" />
      </cc:Work>
    </rdf:RDF>
  </metadata>
  <g
     inkscape:label="Layer 1"
     inkscape:groupmode="layer"
     id="layer1"
     transform="translate(0,-520.86615)">
    <path
       inkscape:connector-curvature="0"
       style="fill:#678ff5;fill-opacity:1;stroke:#e0e0e0;stroke-width:2.97017;stroke-opacity:1"
       d="m 41.617136,983.51842 c 9.812309,-1.59887 19.624602,-4.00645 29.436894,-8.24925 9.812293,-4.24285 19.624618,-10.35713 29.43691,-19.73423 9.81236,-9.37708 19.62466,-22.11455 29.43694,-39.19102 9.81232,-17.07647 19.62461,-38.61089 29.43692,-63.80218 9.81229,-25.19125 19.62458,-54.06937 29.43691,-83.15265 9.81231,-29.08323 19.6246,-58.22479 29.43691,-82.26077 9.81229,-24.03595 19.6246,-42.71093 29.43693,-52.12006 9.81227,-9.40918 19.62461,-9.39113 29.4369,0 9.81232,9.39111 19.62461,28.0944 29.43692,52.12006 9.81227,24.02573 19.62459,53.17754 29.43688,82.26077 9.81234,29.08328 19.62463,57.95446 29.43693,83.15265 9.81232,25.19818 19.62461,46.71724 29.43692,63.80218 9.81229,17.08496 19.62459,29.80738 29.43693,39.19102 9.81232,9.38368 19.62461,15.48764 29.43692,19.73423 9.81227,4.24657 19.6246,6.65038 29.43691,8.24925"
       title="exp(-x*x/2)"
       id="path4179" />
    <path
       id="path4305"
       title="exp(-x*x/2)"
       d="m -380.01135,380.62428 c 4.46717,-0.66625 8.93434,-1.66947 13.40151,-3.43745 4.46717,-1.76797 8.93434,-4.31577 13.40152,-8.22318 4.46717,-3.90741 8.93434,-9.21508 13.40151,-16.33079 4.46717,-7.11571 8.93434,-16.08905 13.40151,-26.58619 4.46717,-10.49713 8.93434,-22.53056 13.40152,-34.64947 4.46717,-12.11891 8.93434,-24.26212 13.40151,-34.27783 4.46717,-10.01571 8.93434,-17.79752 13.40151,-21.71829 4.46717,-3.92077 8.93435,-3.91325 13.40152,0 4.46717,3.91325 8.93434,11.70686 13.40151,21.71829 4.46717,10.01144 8.93434,22.15892 13.40151,34.27783 4.46718,12.11891 8.93435,24.14946 13.40152,34.64947 4.46717,10.50001 8.93434,19.46694 13.40151,26.58619 4.46717,7.11925 8.93434,12.42065 13.40151,16.33079 4.46718,3.91014 8.93435,6.45364 13.40152,8.22318 4.46717,1.76955 8.93434,2.7712 13.40151,3.43745"
       style="fill:#f54c7f;fill-opacity:1;stroke:#e0e0e0;stroke-width:1.29367;stroke-opacity:1"
       inkscape:connector-curvature="0"
       clip-path="url(#clipPath4309)"
       transform="matrix(2.1962927,0,0,2.3998748,876.28233,70.067804)" />
    <path
       inkscape:connector-curvature="0"
       style="fill:#f57067;fill-opacity:1;stroke:#e0e0e0;stroke-width:2.97997;stroke-opacity:1"
       d="m 206.0398,983.84612 c 9.86776,-1.60041 19.73552,-4.01022 29.60329,-8.25706 9.86776,-4.24682 19.73551,-10.36686 29.6033,-19.75279 9.86776,-9.38593 19.73551,-22.13542 29.60327,-39.22795 9.86777,-17.09258 19.73553,-38.6473 29.60328,-63.86234 9.86775,-25.215 19.73552,-54.12036 29.60331,-83.23101 9.86776,-29.11069 19.7355,-58.27972 29.60328,-82.33833 9.86775,-24.0586 19.73551,-42.75117 29.60327,-52.1692 9.86777,-9.41802 19.73553,-9.39996 29.60329,0 9.86778,9.39996 19.73553,28.12089 29.60329,52.1692 9.86777,24.04835 19.73551,53.22764 29.60329,82.33833 9.86776,29.11065 19.73553,58.00908 29.6033,83.23101 9.86775,25.22193 19.7355,46.76127 29.60326,63.86234 9.86776,17.10103 19.73553,29.83547 29.60329,39.22795 9.86779,9.39251 19.73553,15.50219 29.60329,19.75279 9.86777,4.25061 19.73552,6.65665 29.60329,8.25706"
       title="exp(-x*x/2)"
       id="path4292" />
    <path
       clip-path="url(#clipPath4346)"
       inkscape:connector-curvature="0"
       style="fill:#c88ef5;fill-opacity:1;stroke:#e0e0e0;stroke-width:1.25845983;stroke-miterlimit:4;stroke-dasharray:none;stroke-opacity:1"
       d="m -380.01135,380.62428 c 4.46717,-0.66625 8.93434,-1.66947 13.40151,-3.43745 4.46717,-1.76797 8.93434,-4.31577 13.40152,-8.22318 4.46717,-3.90741 8.93434,-9.21508 13.40151,-16.33079 4.46717,-7.11571 8.93434,-16.08905 13.40151,-26.58619 4.46717,-10.49713 8.93434,-22.53056 13.40152,-34.64947 4.46717,-12.11891 8.93434,-24.26212 13.40151,-34.27783 4.46717,-10.01571 8.93434,-17.79752 13.40151,-21.71829 4.46717,-3.92077 8.93435,-3.91325 13.40152,0 4.46717,3.91325 8.93434,11.70686 13.40151,21.71829 4.46717,10.01144 8.93434,22.15892 13.40151,34.27783 4.46718,12.11891 8.93435,24.14946 13.40152,34.64947 4.46717,10.50001 8.93434,19.46694 13.40151,26.58619 4.46717,7.11925 8.93434,12.42065 13.40151,16.33079 4.46718,3.91014 8.93435,6.45364 13.40152,8.22318 4.46717,1.76955 8.93434,2.7712 13.40151,3.43745"
       title="exp(-x*x/2)"
       id="path4340"
       transform="matrix(2.2619398,0,0,2.462369,892.82005,47.329735)" />
    <path
       inkscape:connector-curvature="0"
       style="fill:#4cf5d9;fill-opacity:1;stroke:#e0e0e0;stroke-width:1.29365;stroke-miterlimit:4;stroke-dasharray:none;stroke-opacity:1"
       d="m 388.26393,380.41483 c 4.46717,-0.66625 10.65906,-1.46002 15.12623,-3.228 4.46717,-1.76797 8.93434,-4.31577 13.40152,-8.22318 4.46717,-3.90741 8.93434,-9.21508 13.40151,-16.33079 4.46717,-7.11571 8.93434,-16.08905 13.40151,-26.58619 4.46717,-10.49713 8.93434,-22.53056 13.40152,-34.64947 4.46717,-12.11891 8.93434,-24.26212 13.40151,-34.27783 4.46717,-10.01571 8.93434,-17.79752 13.40151,-21.71829 4.46717,-3.92077 8.93435,-3.91325 13.40152,0 4.46717,3.91325 8.93434,11.70686 13.40151,21.71829 4.46717,10.01144 8.93434,22.15892 13.40151,34.27783 4.46718,12.11891 8.93435,24.14946 13.40152,34.64947 4.46717,10.50001 8.93434,19.46694 13.40151,26.58619 4.46717,7.11925 8.93434,12.42065 13.40151,16.33079 4.46718,3.91014 8.93435,6.45364 13.40152,8.22318 4.46717,1.76955 8.93434,2.7712 13.40151,3.43745"
       title="exp(-x*x/2)"
       id="path4266"
       clip-path="url(#clipPath4272)"
       transform="matrix(2.1751189,0,0,2.360989,-642.23188,85.196383)"
       sodipodi:nodetypes="cssssssssssssssc" />
    <path
       style="fill:none;fill-rule:evenodd;stroke:#e0e0e0;stroke-width:2.96999997;stroke-linecap:butt;stroke-linejoin:miter;stroke-miterlimit:4;stroke-dasharray:none;stroke-opacity:1"
       d="M 292.06836,579.41525 V 983.18944"
       id="path4276"
       inkscape:connector-curvature="0" />
    <path
       style="fill:none;fill-rule:evenodd;stroke:#e0e0e0;stroke-width:3.79557;stroke-linecap:butt;stroke-linejoin:miter;stroke-miterlimit:4;stroke-dasharray:none;stroke-opacity:1"
       d="M 29.952291,983.00467 H 661.73197"
       id="path4350"
       inkscape:connector-curvature="0" />
    <text
       xml:space="preserve"
       style="font-style:normal;font-variant:normal;font-weight:normal;font-stretch:normal;font-size:27.55px;line-height:0%;font-family:sans-serif;-inkscape-font-specification:'sans-serif, Normal';text-align:center;letter-spacing:0px;word-spacing:0px;writing-mode:lr-tb;text-anchor:middle;fill:#1f1f1f;fill-opacity:1;stroke:none;stroke-width:2.29582px;stroke-linecap:butt;stroke-linejoin:miter;stroke-opacity:1"
       x="447.64624"
       y="715.2851"
       id="text4832"
       transform="scale(0.95664503,1.0453198)"><tspan
         sodipodi:role="line"
         id="tspan4834"
         x="447.64624"
         y="715.2851"
         style="font-style:normal;font-variant:normal;font-weight:normal;font-stretch:normal;font-size:34.4374px;line-height:1.25;font-family:Roboto;-inkscape-font-specification:Roboto;stroke-width:2.29582px;fill:#1f1f1f;fill-opacity:1">TP</tspan></text>
    <text
       id="text4836"
       y="774.97675"
       x="332.85486"
       style="font-style:normal;font-variant:normal;font-weight:normal;font-stretch:normal;font-size:27.55px;line-height:0%;font-family:sans-serif;-inkscape-font-specification:'sans-serif, Normal';text-align:center;letter-spacing:0px;word-spacing:0px;writing-mode:lr-tb;text-anchor:middle;fill:#1f1f1f;fill-opacity:1;stroke:none;stroke-width:2.29582px;stroke-linecap:butt;stroke-linejoin:miter;stroke-opacity:1"
       xml:space="preserve"
       transform="scale(0.95664503,1.0453198)"><tspan
         sodipodi:role="line"
         id="tspan4840"
         x="332.85486"
         y="774.97675"
         style="font-style:normal;font-variant:normal;font-weight:normal;font-stretch:normal;font-size:34.4374px;line-height:1.25;font-family:Roboto;-inkscape-font-specification:Roboto;stroke-width:2.29582px;fill:#1f1f1f;fill-opacity:1">FP</tspan></text>
    <text
       xml:space="preserve"
       style="font-style:normal;font-variant:normal;font-weight:normal;font-stretch:normal;font-size:27.55px;line-height:0%;font-family:sans-serif;-inkscape-font-specification:'sans-serif, Normal';text-align:center;letter-spacing:0px;word-spacing:0px;writing-mode:lr-tb;text-anchor:middle;fill:#1f1f1f;fill-opacity:1;stroke:none;stroke-width:2.29582px;stroke-linecap:butt;stroke-linejoin:miter;stroke-opacity:1"
       x="241.02174"
       y="825.48486"
       id="text4842"
       transform="scale(0.95664503,1.0453198)"><tspan
         sodipodi:role="line"
         id="tspan4846"
         x="241.02174"
         y="825.48486"
         style="font-style:normal;font-variant:normal;font-weight:normal;font-stretch:normal;font-size:34.4374px;line-height:1.25;font-family:Roboto;-inkscape-font-specification:Roboto;stroke-width:2.29582px;fill:#1f1f1f;fill-opacity:1">TN</tspan></text>
    <text
       id="text4848"
       y="995.37616"
       x="254.79666"
       style="font-style:normal;font-variant:normal;font-weight:normal;font-stretch:normal;font-size:27.55px;line-height:0%;font-family:sans-serif;-inkscape-font-specification:'sans-serif, Normal';text-align:center;letter-spacing:0px;word-spacing:0px;writing-mode:lr-tb;text-anchor:middle;fill:#e0e0e0;fill-opacity:1;stroke:none;stroke-width:2.29582px;stroke-linecap:butt;stroke-linejoin:miter;stroke-opacity:1"
       xml:space="preserve"
       transform="scale(0.95664503,1.0453198)"><tspan
         sodipodi:role="line"
         id="tspan4852"
         x="254.79666"
         y="995.37616"
         style="font-style:normal;font-variant:normal;font-weight:normal;font-stretch:normal;font-size:34.4374px;line-height:1.25;font-family:Roboto;-inkscape-font-specification:Roboto;stroke-width:2.29582px;fill:#e0e0e0;fill-opacity:1">FN</tspan></text>
    <path
       style="fill:none;fill-rule:evenodd;stroke:#e0e0e0;stroke-width:2.29582px;stroke-linecap:butt;stroke-linejoin:miter;stroke-opacity:1"
       d="m 243.75,1011.688 28.55181,-47.99757"
       id="path4854"
       inkscape:connector-curvature="0"
       sodipodi:nodetypes="cc" />
    <text
       xml:space="preserve"
       transform="matrix(0.93749999,0,0,0.93749999,0,520.86615)"
       id="text25912"
       style="fill:black;fill-opacity:1;line-height:1.25;stroke:none;font-family:sans-serif;font-style:normal;font-weight:normal;font-size:40px;white-space:pre;shape-inside:url(#rect25914)" />
    <text
       id="text4848-7"
       y="548.95245"
       x="304.46686"
       style="font-style:normal;font-variant:normal;font-weight:normal;font-stretch:normal;font-size:27.55px;line-height:0%;font-family:jsMath-cmbx10;-inkscape-font-specification:jsMath-cmbx10;text-align:center;letter-spacing:0px;word-spacing:0px;writing-mode:lr-tb;text-anchor:middle;fill:#e0e0e0;fill-opacity:1;stroke:none;stroke-width:2.29582px;stroke-linecap:butt;stroke-linejoin:miter;stroke-opacity:1"
       xml:space="preserve"
       transform="scale(0.95664503,1.0453198)"><tspan
         sodipodi:role="line"
         id="tspan4852-5"
         x="304.46686"
         y="548.95245"
         style="font-style:normal;font-variant:normal;font-weight:normal;font-stretch:normal;font-size:34.4374px;line-height:1.25;font-family:jsMath-cmbx10;-inkscape-font-specification:jsMath-cmbx10;stroke-width:2.29582px;fill:#e0e0e0;fill-opacity:1">α</tspan></text>
  </g>
</svg>
