<?xml version="1.0" encoding="UTF-8" standalone="no"?>
<!-- Created with Inkscape (http://www.inkscape.org/) -->

<svg
   width="200mm"
   height="150mm"
   viewBox="0 0 708.66142 531.49606"
   id="svg2"
   version="1.1"
   inkscape:version="1.1 (c4e8f9ed74, 2021-05-24)"
   sodipodi:docname="errors.svg"
   inkscape:export-filename="/home/cullyn/notes/statistics/chapters/images/errors.png"
   inkscape:export-xdpi="200"
   inkscape:export-ydpi="200"
   xmlns:inkscape="http://www.inkscape.org/namespaces/inkscape"
   xmlns:sodipodi="http://sodipodi.sourceforge.net/DTD/sodipodi-0.dtd"
   xmlns="http://www.w3.org/2000/svg"
   xmlns:svg="http://www.w3.org/2000/svg"
   xmlns:rdf="http://www.w3.org/1999/02/22-rdf-syntax-ns#"
   xmlns:cc="http://creativecommons.org/ns#"
   xmlns:dc="http://purl.org/dc/elements/1.1/">
  <sodipodi:namedview
     id="base"
     pagecolor="#ffffff"
     bordercolor="#666666"
     borderopacity="1.0"
     inkscape:pageopacity="0.0"
     inkscape:pageshadow="2"
     inkscape:zoom="1.55"
     inkscape:cx="362.90323"
     inkscape:cy="178.06452"
     inkscape:document-units="px"
     inkscape:current-layer="layer1"
     showgrid="true"
     inkscape:window-width="2940"
     inkscape:window-height="1718"
     inkscape:window-x="440"
     inkscape:window-y="233"
     inkscape:window-maximized="1"
     gridtolerance="1"
     inkscape:pagecheckerboard="0">
    <inkscape:grid
       type="xygrid"
       id="grid3336" />
  </sodipodi:namedview>
  <defs
     id="defs4">
    <rect
       x="470"
       y="42.773011"
       width="231.21431"
       height="153.24024"
       id="rect25914" />
    <marker
       inkscape:isstock="true"
       style="overflow:visible"
       id="marker6191"
       refX="0"
       refY="0"
       orient="auto"
       inkscape:stockid="Arrow1Mend">
      <path
         transform="matrix(-0.4,0,0,-0.4,-4,0)"
         style="fill:#00a100;fill-opacity:1;fill-rule:evenodd;stroke:#00a100;stroke-width:1pt;stroke-opacity:1"
         d="M 0,0 5,-5 -12.5,0 5,5 0,0 Z"
         id="path6193"
         inkscape:connector-curvature="0" />
    </marker>
    <marker
       inkscape:isstock="true"
       style="overflow:visible"
       id="marker6181"
       refX="0"
       refY="0"
       orient="auto"
       inkscape:stockid="Arrow1Mstart">
      <path
         transform="matrix(0.4,0,0,0.4,4,0)"
         style="fill:#00a100;fill-opacity:1;fill-rule:evenodd;stroke:#00a100;stroke-width:1pt;stroke-opacity:1"
         d="M 0,0 5,-5 -12.5,0 5,5 0,0 Z"
         id="path6183"
         inkscape:connector-curvature="0" />
    </marker>
    <marker
       inkscape:stockid="Arrow1Mstart"
       orient="auto"
       refY="0"
       refX="0"
       id="marker5038"
       style="overflow:visible"
       inkscape:isstock="true">
      <path
         id="path5040"
         d="M 0,0 5,-5 -12.5,0 5,5 0,0 Z"
         style="fill:#000000;fill-opacity:1;fill-rule:evenodd;stroke:#000000;stroke-width:1pt;stroke-opacity:1"
         transform="matrix(0.4,0,0,0.4,4,0)"
         inkscape:connector-curvature="0" />
    </marker>
    <marker
       inkscape:stockid="Arrow1Mend"
       orient="auto"
       refY="0"
       refX="0"
       id="marker4888"
       style="overflow:visible"
       inkscape:isstock="true">
      <path
         id="path4890"
         d="M 0,0 5,-5 -12.5,0 5,5 0,0 Z"
         style="fill:#000000;fill-opacity:1;fill-rule:evenodd;stroke:#000000;stroke-width:1pt;stroke-opacity:1"
         transform="matrix(-0.4,0,0,-0.4,-4,0)"
         inkscape:connector-curvature="0" />
    </marker>
    <marker
       inkscape:stockid="Arrow2Send"
       orient="auto"
       refY="0"
       refX="0"
       id="Arrow2Send"
       style="overflow:visible"
       inkscape:isstock="true">
      <path
         id="path4391"
         style="fill:#000000;fill-opacity:1;fill-rule:evenodd;stroke:#000000;stroke-width:0.625;stroke-linejoin:round;stroke-opacity:1"
         d="M 8.7185878,4.0337352 -2.2072895,0.01601326 8.7185884,-4.0017078 c -1.7454984,2.3720609 -1.7354408,5.6174519 -6e-7,8.035443 z"
         transform="matrix(-0.3,0,0,-0.3,0.69,0)"
         inkscape:connector-curvature="0" />
    </marker>
    <marker
       inkscape:stockid="Arrow2Lend"
       orient="auto"
       refY="0"
       refX="0"
       id="Arrow2Lend"
       style="overflow:visible"
       inkscape:isstock="true">
      <path
         id="path4379"
         style="fill:#000000;fill-opacity:1;fill-rule:evenodd;stroke:#000000;stroke-width:0.625;stroke-linejoin:round;stroke-opacity:1"
         d="M 8.7185878,4.0337352 -2.2072895,0.01601326 8.7185884,-4.0017078 c -1.7454984,2.3720609 -1.7354408,5.6174519 -6e-7,8.035443 z"
         transform="matrix(-1.1,0,0,-1.1,-1.1,0)"
         inkscape:connector-curvature="0" />
    </marker>
    <marker
       inkscape:stockid="Arrow1Send"
       orient="auto"
       refY="0"
       refX="0"
       id="Arrow1Send"
       style="overflow:visible"
       inkscape:isstock="true">
      <path
         id="path4373"
         d="M 0,0 5,-5 -12.5,0 5,5 0,0 Z"
         style="fill:#000000;fill-opacity:1;fill-rule:evenodd;stroke:#000000;stroke-width:1pt;stroke-opacity:1"
         transform="matrix(-0.2,0,0,-0.2,-1.2,0)"
         inkscape:connector-curvature="0" />
    </marker>
    <marker
       inkscape:stockid="Arrow2Lstart"
       orient="auto"
       refY="0"
       refX="0"
       id="Arrow2Lstart"
       style="overflow:visible"
       inkscape:isstock="true">
      <path
         id="path4376"
         style="fill:#000000;fill-opacity:1;fill-rule:evenodd;stroke:#000000;stroke-width:0.625;stroke-linejoin:round;stroke-opacity:1"
         d="M 8.7185878,4.0337352 -2.2072895,0.01601326 8.7185884,-4.0017078 c -1.7454984,2.3720609 -1.7354408,5.6174519 -6e-7,8.035443 z"
         transform="matrix(1.1,0,0,1.1,1.1,0)"
         inkscape:connector-curvature="0" />
    </marker>
    <clipPath
       id="clipPath">
      <rect
         style="fill:none;fill-opacity:0.49659861;stroke:#000000;stroke-opacity:1"
         id="rect4212"
         width="40"
         height="160"
         x="390"
         y="222.36218" />
    </clipPath>
    <clipPath
       id="clipPathx">
      <rect
         y="232.36218"
         x="390"
         height="150"
         width="30"
         id="rect4237"
         style="fill:none;fill-opacity:0.49659861;stroke:#000000;stroke-opacity:1" />
    </clipPath>
    <clipPath
       clipPathUnits="userSpaceOnUse"
       id="clipPath4272">
      <rect
         style="fill:none;fill-opacity:1;stroke:#000000;stroke-opacity:1"
         id="rect4274"
         width="40"
         height="150"
         x="390"
         y="232.36218" />
    </clipPath>
    <clipPath
       clipPathUnits="userSpaceOnUse"
       id="clipPath4286">
      <rect
         style="fill:#ffc4c4;fill-opacity:1;stroke:#000000;stroke-width:1;stroke-miterlimit:4;stroke-dasharray:none;stroke-opacity:1"
         id="rect4288"
         width="30"
         height="180"
         x="522"
         y="212.36218" />
    </clipPath>
    <clipPath
       clipPathUnits="userSpaceOnUse"
       id="clipPath4301">
      <path
         clip-path="none"
         id="path4303"
         title="exp(-x*x/2)"
         d="m -226.01135,380.62428 c 4.46717,-0.66625 8.93434,-1.66947 13.40151,-3.43745 4.46717,-1.76797 8.93434,-4.31577 13.40152,-8.22318 4.46717,-3.90741 8.93434,-9.21508 13.40151,-16.33079 4.46717,-7.11571 8.93434,-16.08905 13.40151,-26.58619 4.46717,-10.49713 8.93434,-22.53056 13.40152,-34.64947 4.46717,-12.11891 8.93434,-24.26212 13.40151,-34.27783 4.46717,-10.01571 8.93434,-17.79752 13.40151,-21.71829 4.46717,-3.92077 8.93435,-3.91325 13.40152,0 4.46717,3.91325 8.93434,11.70686 13.40151,21.71829 4.46717,10.01144 8.93434,22.15892 13.40151,34.27783 4.46718,12.11891 8.93435,24.14946 13.40152,34.64947 4.46717,10.50001 8.93434,19.46694 13.40151,26.58619 4.46717,7.11925 8.93434,12.42065 13.40151,16.33079 4.46718,3.91014 8.93435,6.45364 13.40152,8.22318 4.46717,1.76955 8.93434,2.7712 13.40151,3.43745"
         style="fill:#ffc4c4;fill-opacity:1;stroke:#000000;stroke-width:1.29366648;stroke-opacity:1"
         inkscape:connector-curvature="0" />
    </clipPath>
    <clipPath
       clipPathUnits="userSpaceOnUse"
       id="clipPath4309">
      <rect
         style="fill:none;fill-opacity:1;stroke:#000000;stroke-width:0.93233514;stroke-miterlimit:4;stroke-dasharray:none;stroke-opacity:1"
         id="rect4311"
         width="26.067665"
         height="180.06766"
         x="-266.03384"
         y="212.32835" />
    </clipPath>
    <clipPath
       clipPathUnits="userSpaceOnUse"
       id="clipPath4346">
      <path
         inkscape:connector-curvature="0"
         style="fill:none;fill-opacity:1;stroke:#000000;stroke-width:1.29366648;stroke-opacity:1"
         d="m -150.01135,380.62428 c 4.46717,-0.66625 8.93434,-1.66947 13.40151,-3.43745 4.46717,-1.76797 8.93434,-4.31577 13.40152,-8.22318 4.46717,-3.90741 8.93434,-9.21508 13.40151,-16.33079 4.46717,-7.11571 8.93434,-16.08905 13.40151,-26.58619 4.46717,-10.49713 8.93434,-22.53056 13.40152,-34.64947 4.46717,-12.11891 8.93434,-24.26212 13.40151,-34.27783 4.46717,-10.01571 8.93434,-17.79752 13.40151,-21.71829 4.46717,-3.92077 8.93435,-3.91325 13.40152,0 4.46717,3.91325 8.93434,11.70686 13.40151,21.71829 4.46717,10.01144 8.93434,22.15892 13.40151,34.27783 4.46718,12.11891 8.93435,24.14946 13.40152,34.64947 4.46717,10.50001 8.93434,19.46694 13.40151,26.58619 4.46717,7.11925 8.93434,12.42065 13.40151,16.33079 4.46718,3.91014 8.93435,6.45364 13.40152,8.22318 4.46717,1.76955 8.93434,2.7712 13.40151,3.43745"
         title="exp(-x*x/2)"
         id="path4348"
         clip-path="url(#clipPath4301)"
         transform="translate(-154,0)" />
    </clipPath>
    <marker
       inkscape:stockid="Arrow1Send3772"
       orient="auto"
       refY="0"
       refX="0"
       style="overflow:visible"
       inkscape:isstock="true"
       id="Arrow1Send3772">
      <path
         id="path1162"
         d="M 0,0 5,-5 -12.5,0 5,5 0,0 Z"
         style="fill:#e0e0e0;fill-opacity:1;fill-rule:evenodd;stroke:#000000;stroke-width:1pt;stroke-opacity:1"
         transform="matrix(-0.2,0,0,-0.2,-1.2,0)"
         inkscape:connector-curvature="0" />
    </marker>
    <marker
       inkscape:stockid="Arrow1Send37724022"
       orient="auto"
       refY="0"
       refX="0"
       style="overflow:visible"
       inkscape:isstock="true"
       id="Arrow1Send37724022">
      <path
         id="path1496"
         d="M 0,0 5,-5 -12.5,0 5,5 0,0 Z"
         style="fill:#e0e0e0;fill-opacity:1;fill-rule:evenodd;stroke:#e0e0e0;stroke-width:1pt;stroke-opacity:1"
         transform="matrix(-0.2,0,0,-0.2,-1.2,0)"
         inkscape:connector-curvature="0" />
    </marker>
    <marker
       inkscape:stockid="Arrow1Send37724022"
       orient="auto"
       refY="0"
       refX="0"
       style="overflow:visible"
       inkscape:isstock="true"
       id="Arrow1Send37724022-3">
      <path
         id="path1496-6"
         d="M 0,0 5,-5 -12.5,0 5,5 Z"
         style="fill:#e0e0e0;fill-opacity:1;fill-rule:evenodd;stroke:#e0e0e0;stroke-width:1pt;stroke-opacity:1"
         transform="matrix(-0.2,0,0,-0.2,-1.2,0)"
         inkscape:connector-curvature="0" />
    </marker>
    <marker
       inkscape:stockid="Arrow1Send8850"
       orient="auto"
       refY="0"
       refX="0"
       style="overflow:visible"
       inkscape:isstock="true"
       id="Arrow1Send8850">
      <path
         id="path120951"
         d="M 0,0 5,-5 -12.5,0 5,5 0,0 Z"
         style="fill:#e0e0e0;fill-opacity:1;fill-rule:evenodd;stroke:#e0e0e0;stroke-width:1pt;stroke-opacity:1"
         transform="matrix(-0.2,0,0,-0.2,-1.2,0)"
         inkscape:connector-curvature="0" />
    </marker>
    <marker
       inkscape:stockid="Arrow1Send4695"
       orient="auto"
       refY="0"
       refX="0"
       style="overflow:visible"
       inkscape:isstock="true"
       id="Arrow1Send4695">
      <path
         id="path120954"
         d="M 0,0 5,-5 -12.5,0 5,5 0,0 Z"
         style="fill:#e0e0e0;fill-opacity:1;fill-rule:evenodd;stroke:#e0e0e0;stroke-width:1pt;stroke-opacity:1"
         transform="matrix(-0.2,0,0,-0.2,-1.2,0)"
         inkscape:connector-curvature="0" />
    </marker>
    <filter
       style="color-interpolation-filters:sRGB;"
       inkscape:label="Drop Shadow"
       id="filter121975"
       x="-0.0072503289"
       y="-0.047607444"
       width="1.0205426"
       height="1.1249695">
      <feFlood
         flood-opacity="0.498039"
         flood-color="rgb(0,0,0)"
         result="flood"
         id="feFlood121965" />
      <feComposite
         in="flood"
         in2="SourceGraphic"
         operator="in"
         result="composite1"
         id="feComposite121967" />
      <feGaussianBlur
         in="composite1"
         stdDeviation="0.4"
         result="blur"
         id="feGaussianBlur121969" />
      <feOffset
         dx="0.8"
         dy="0.6"
         result="offset"
         id="feOffset121971" />
      <feComposite
         in="SourceGraphic"
         in2="offset"
         operator="over"
         result="composite2"
         id="feComposite121973" />
    </filter>
    <filter
       style="color-interpolation-filters:sRGB;"
       inkscape:label="Drop Shadow"
       id="filter122005"
       x="-0.0076668227"
       y="-0.059863741"
       width="1.0217227"
       height="1.1571423">
      <feFlood
         flood-opacity="0.498039"
         flood-color="rgb(0,0,0)"
         result="flood"
         id="feFlood121995" />
      <feComposite
         in="flood"
         in2="SourceGraphic"
         operator="in"
         result="composite1"
         id="feComposite121997" />
      <feGaussianBlur
         in="composite1"
         stdDeviation="0.4"
         result="blur"
         id="feGaussianBlur121999" />
      <feOffset
         dx="0.8"
         dy="0.6"
         result="offset"
         id="feOffset122001" />
      <feComposite
         in="SourceGraphic"
         in2="offset"
         operator="over"
         result="composite2"
         id="feComposite122003" />
    </filter>
    <filter
       style="color-interpolation-filters:sRGB;"
       inkscape:label="Drop Shadow"
       id="filter44430"
       x="-0.010651065"
       y="-0.044333503"
       width="1.0268496"
       height="1.1117574">
      <feFlood
         flood-opacity="0.498039"
         flood-color="rgb(224,224,224)"
         result="flood"
         id="feFlood44420" />
      <feComposite
         in="flood"
         in2="SourceGraphic"
         operator="in"
         result="composite1"
         id="feComposite44422" />
      <feGaussianBlur
         in="composite1"
         stdDeviation="0.4"
         result="blur"
         id="feGaussianBlur44424" />
      <feOffset
         dx="0.5"
         dy="0.5"
         result="offset"
         id="feOffset44426" />
      <feComposite
         in="SourceGraphic"
         in2="offset"
         operator="over"
         result="composite2"
         id="feComposite44428" />
    </filter>
  </defs>
  <metadata
     id="metadata7">
    <rdf:RDF>
      <cc:Work
         rdf:about="">
        <dc:format>image/svg+xml</dc:format>
        <dc:type
           rdf:resource="http://purl.org/dc/dcmitype/StillImage" />
      </cc:Work>
    </rdf:RDF>
  </metadata>
  <g
     inkscape:label="Layer 1"
     inkscape:groupmode="layer"
     id="layer1"
     transform="translate(0,-520.86615)">
    <path
       inkscape:connector-curvature="0"
       style="fill:#678ff5;fill-opacity:1;stroke:#e0e0e0;stroke-width:3.0441;stroke-opacity:1"
       d="m 34.955474,989.61614 c 10.056549,-1.63866 20.113081,-4.10617 30.169613,-8.45458 10.056532,-4.34846 20.113098,-10.61493 30.169629,-20.22544 10.056604,-9.61048 20.113144,-22.665 30.169664,-40.16653 10.05656,-17.50152 20.11309,-39.57196 30.16964,-65.39029 10.05653,-25.81829 20.11306,-55.41522 30.16963,-85.22242 10.05655,-29.80714 20.11308,-59.67407 30.16963,-84.30833 10.05653,-24.63424 20.11308,-43.77406 30.16965,-53.41739 10.05651,-9.64339 20.11309,-9.62489 30.16962,0 10.05656,9.62486 20.11309,28.7937 30.16964,53.41739 10.05651,24.62375 20.11307,54.50119 30.1696,84.30833 10.05658,29.8072 20.11311,59.39702 30.16965,85.22242 10.05656,25.82539 20.11309,47.88009 30.16964,65.39029 10.05652,17.51023 20.11306,30.54932 30.16965,40.16653 10.05656,9.61725 20.11308,15.87315 30.16963,20.22544 10.05651,4.35227 20.11308,6.81592 30.16963,8.45458"
       title="exp(-x*x/2)"
       id="path4179" />
    <path
       id="path4305"
       title="exp(-x*x/2)"
       d="m -380.01135,380.62428 c 4.46717,-0.66625 8.93434,-1.66947 13.40151,-3.43745 4.46717,-1.76797 8.93434,-4.31577 13.40152,-8.22318 4.46717,-3.90741 8.93434,-9.21508 13.40151,-16.33079 4.46717,-7.11571 8.93434,-16.08905 13.40151,-26.58619 4.46717,-10.49713 8.93434,-22.53056 13.40152,-34.64947 4.46717,-12.11891 8.93434,-24.26212 13.40151,-34.27783 4.46717,-10.01571 8.93434,-17.79752 13.40151,-21.71829 4.46717,-3.92077 8.93435,-3.91325 13.40152,0 4.46717,3.91325 8.93434,11.70686 13.40151,21.71829 4.46717,10.01144 8.93434,22.15892 13.40151,34.27783 4.46718,12.11891 8.93435,24.14946 13.40152,34.64947 4.46717,10.50001 8.93434,19.46694 13.40151,26.58619 4.46717,7.11925 8.93434,12.42065 13.40151,16.33079 4.46718,3.91014 8.93435,6.45364 13.40152,8.22318 4.46717,1.76955 8.93434,2.7712 13.40151,3.43745"
       style="fill:#f54c7f;fill-opacity:1;stroke:#e0e0e0;stroke-width:1.29370843;stroke-opacity:1;stroke-miterlimit:4;stroke-dasharray:none"
       inkscape:connector-curvature="0"
       clip-path="url(#clipPath4309)"
       transform="matrix(2.250961,0,0,2.4596105,890.39647,53.42867)" />
    <path
       inkscape:connector-curvature="0"
       style="fill:#f57067;fill-opacity:1;stroke:#e0e0e0;stroke-width:3.23812497;stroke-opacity:1;stroke-miterlimit:4;stroke-dasharray:none"
       d="m 203.47082,989.14604 c 10.11338,-1.63662 20.22676,-4.10096 30.34015,-8.4439 10.11338,-4.3429 20.22675,-10.60142 30.34016,-20.19972 10.11338,-9.5983 20.22675,-22.63627 30.34013,-40.11554 10.11339,-17.47933 20.22677,-39.52176 30.34014,-65.30733 10.11337,-25.78553 20.22676,-55.34492 30.34017,-85.11424 10.11338,-29.76937 20.22674,-59.59839 30.34014,-84.20137 10.11337,-24.60296 20.22675,-43.71847 30.34013,-53.3496 10.11339,-9.63112 20.22677,-9.61265 30.34015,0 10.1134,9.61265 20.22677,28.75716 30.34015,53.3496 10.11339,24.59249 20.22675,54.432 30.34015,84.20137 10.11338,29.76932 20.22677,59.32162 30.34016,85.11424 10.11337,25.79262 20.22674,47.81932 30.34012,65.30733 10.11338,17.48796 20.22677,30.51054 30.34015,40.11554 10.11342,9.60503 20.22677,15.85296 30.34016,20.19972 10.11339,4.34679 20.22676,6.80728 30.34015,8.4439"
       title="exp(-x*x/2)"
       id="path4292" />
    <path
       clip-path="url(#clipPath4346)"
       inkscape:connector-curvature="0"
       style="fill:#262626;fill-opacity:1;stroke:#e0e0e0;stroke-width:2.53962;stroke-miterlimit:4;stroke-dasharray:none;stroke-opacity:1"
       d="m -380.01135,380.62428 c 4.46717,-0.66625 8.93434,-1.66947 13.40151,-3.43745 4.46717,-1.76797 8.93434,-4.31577 13.40152,-8.22318 4.46717,-3.90741 8.93434,-9.21508 13.40151,-16.33079 4.46717,-7.11571 8.93434,-16.08905 13.40151,-26.58619 4.46717,-10.49713 8.93434,-22.53056 13.40152,-34.64947 4.46717,-12.11891 8.93434,-24.26212 13.40151,-34.27783 4.46717,-10.01571 8.93434,-17.79752 13.40151,-21.71829 4.46717,-3.92077 8.93435,-3.91325 13.40152,0 4.46717,3.91325 8.93434,11.70686 13.40151,21.71829 4.46717,10.01144 8.93434,22.15892 13.40151,34.27783 4.46718,12.11891 8.93435,24.14946 13.40152,34.64947 4.46717,10.50001 8.93434,19.46694 13.40151,26.58619 4.46717,7.11925 8.93434,12.42065 13.40151,16.33079 4.46718,3.91014 8.93435,6.45364 13.40152,8.22318 4.46717,1.76955 8.93434,2.7712 13.40151,3.43745"
       title="exp(-x*x/2)"
       id="path4340"
       transform="matrix(2.3110682,0,0,2.522781,905.68409,29.972314)" />
    <path
       inkscape:connector-curvature="0"
       style="fill:#ac4cf5;fill-opacity:1;stroke:#e0e0e0;stroke-width:1.17237;stroke-linecap:round;stroke-miterlimit:4;stroke-dasharray:none;stroke-opacity:1"
       d="m 388.26393,380.41483 c 4.46717,-0.66625 10.65906,-1.46002 15.12623,-3.228 4.46717,-1.76797 8.79244,-4.3588 13.25962,-8.26621 4.46717,-3.90741 8.93434,-9.21508 13.40151,-16.33079 4.46717,-7.11571 9.07624,-16.04602 13.54341,-26.54316 4.46717,-10.49713 8.93434,-22.53056 13.40152,-34.64947 4.46717,-12.11891 8.93434,-24.26212 13.40151,-34.27783 4.46717,-10.01571 8.93434,-17.79752 13.40151,-21.71829 4.46717,-3.92077 8.93435,-3.91325 13.40152,0 4.46717,3.91325 8.93434,11.70686 13.40151,21.71829 4.46717,10.01144 8.93434,22.15892 13.40151,34.27783 4.46718,12.11891 8.93435,24.14946 13.40152,34.64947 4.46717,10.50001 8.93434,19.46694 13.40151,26.58619 4.46717,7.11925 8.93434,12.42065 13.40151,16.33079 4.46718,3.91014 8.93435,6.45364 13.40152,8.22318 4.46717,1.76955 8.93434,2.7712 13.40151,3.43745"
       title="exp(-x*x/2)"
       id="path4266"
       clip-path="url(#clipPath4272)"
       transform="matrix(2.2589615,0,0,2.4251148,-678.82879,66.678776)"
       sodipodi:nodetypes="cssssssssssssssc" />
    <path
       style="fill:none;fill-rule:evenodd;stroke:#e0e0e0;stroke-width:3.04393;stroke-linecap:round;stroke-linejoin:miter;stroke-miterlimit:4;stroke-dasharray:none;stroke-opacity:1"
       d="M 291.64073,575.45437 V 989.27898"
       id="path4276"
       inkscape:connector-curvature="0" />
    <path
       style="fill:none;fill-rule:evenodd;stroke:#e0e0e0;stroke-width:3.89005;stroke-linecap:round;stroke-linejoin:bevel;stroke-miterlimit:4;stroke-dasharray:none;stroke-opacity:1"
       d="M 23.000277,989.08961 H 670.5057"
       id="path4350"
       inkscape:connector-curvature="0" />
    <path
       style="fill:none;fill-opacity:1;stroke:#e0e0e0;stroke-width:0.960835px;stroke-linecap:butt;stroke-linejoin:miter;stroke-opacity:1;marker-end:url(#Arrow1Send4695)"
       d="m 270.94473,999.39515 7.00376,-31.51282"
       id="path120596" />
    <text
       xml:space="preserve"
       transform="matrix(0.93749999,0,0,0.93749999,0,520.86615)"
       id="text25912"
       style="fill:black;fill-opacity:1;line-height:1.25;stroke:none;font-family:sans-serif;font-style:normal;font-weight:normal;font-size:40px;white-space:pre;shape-inside:url(#rect25914)" />
    <text
       id="text4848-7"
       y="545.03033"
       x="303.99896"
       style="font-style:normal;font-variant:normal;font-weight:normal;font-stretch:normal;font-size:28.2358px;line-height:0%;font-family:jsMath-cmbx10;-inkscape-font-specification:jsMath-cmbx10;text-align:center;letter-spacing:0px;word-spacing:0px;writing-mode:lr-tb;text-anchor:middle;fill:#e0e0e0;fill-opacity:1;stroke:none;stroke-width:2.35297px;stroke-linecap:butt;stroke-linejoin:miter;stroke-opacity:1"
       xml:space="preserve"
       transform="scale(0.95664503,1.0453198)"><tspan
         sodipodi:role="line"
         id="tspan4852-5"
         x="303.99896"
         y="545.03033"
         style="font-style:normal;font-variant:normal;font-weight:normal;font-stretch:normal;font-size:35.2946px;line-height:1.25;font-family:jsMath-cmbx10;-inkscape-font-specification:jsMath-cmbx10;fill:#e0e0e0;fill-opacity:1;stroke-width:2.35297px">α</tspan></text>
    <text
       id="text4848-7-35"
       y="645.4433"
       x="465.09048"
       style="font-style:normal;font-variant:normal;font-weight:normal;font-stretch:normal;font-size:15.751px;line-height:0%;font-family:jsMath-cmbx10;-inkscape-font-specification:jsMath-cmbx10;text-align:center;letter-spacing:0px;word-spacing:0px;writing-mode:lr-tb;text-anchor:middle;fill:#e0e0e0;fill-opacity:1;stroke:none;stroke-width:1.31257px;stroke-linecap:butt;stroke-linejoin:miter;stroke-opacity:1"
       xml:space="preserve"
       transform="scale(0.95664503,1.0453198)"><tspan
         sodipodi:role="line"
         id="tspan4852-5-62"
         x="465.09048"
         y="645.4433"
         style="font-style:normal;font-variant:normal;font-weight:normal;font-stretch:normal;font-size:19.6886px;line-height:1.25;font-family:jsMath-cmbx10;-inkscape-font-specification:jsMath-cmbx10;fill:#e0e0e0;fill-opacity:1;stroke-width:1.31257px">α</tspan></text>
    <text
       id="text4848-7-35-9"
       y="647.02325"
       x="286.50549"
       style="font-style:normal;font-variant:normal;font-weight:normal;font-stretch:normal;font-size:15.751px;line-height:0%;font-family:jsMath-cmbx10;-inkscape-font-specification:jsMath-cmbx10;text-align:center;letter-spacing:0px;word-spacing:0px;writing-mode:lr-tb;text-anchor:middle;fill:#e0e0e0;fill-opacity:1;stroke:none;stroke-width:1.31257px;stroke-linecap:butt;stroke-linejoin:miter;stroke-opacity:1"
       xml:space="preserve"
       transform="scale(0.95664503,1.0453198)"><tspan
         sodipodi:role="line"
         id="tspan4852-5-62-1"
         x="286.50549"
         y="647.02325"
         style="font-style:normal;font-variant:normal;font-weight:normal;font-stretch:normal;font-size:19.6886px;line-height:1.25;font-family:jsMath-cmbx10;-inkscape-font-specification:jsMath-cmbx10;fill:#e0e0e0;fill-opacity:1;stroke-width:1.31257px">0</tspan></text>
    <text
       id="text4848-7-3"
       y="639.84845"
       x="269.21536"
       style="font-style:normal;font-variant:normal;font-weight:normal;font-stretch:normal;font-size:28.2358px;line-height:0%;font-family:Roboto;-inkscape-font-specification:Roboto;text-align:center;letter-spacing:0px;word-spacing:0px;writing-mode:lr-tb;text-anchor:middle;fill:#e0e0e0;fill-opacity:1;stroke:none;stroke-width:2.35297px;stroke-linecap:butt;stroke-linejoin:miter;stroke-opacity:1"
       xml:space="preserve"
       transform="scale(0.95664503,1.0453198)"><tspan
         sodipodi:role="line"
         id="tspan4852-5-6"
         x="269.21536"
         y="639.84845"
         style="font-style:normal;font-variant:normal;font-weight:normal;font-stretch:normal;font-size:35.2946px;line-height:1.25;font-family:Roboto;-inkscape-font-specification:Roboto;fill:#e0e0e0;fill-opacity:1;stroke-width:2.35297px">H</tspan></text>
    <text
       id="text4848-7-3-7"
       y="638.26849"
       x="448.13412"
       style="font-style:normal;font-variant:normal;font-weight:normal;font-stretch:normal;font-size:28.2358px;line-height:0%;font-family:Roboto;-inkscape-font-specification:Roboto;text-align:center;letter-spacing:0px;word-spacing:0px;writing-mode:lr-tb;text-anchor:middle;fill:#e0e0e0;fill-opacity:1;stroke:none;stroke-width:2.35297px;stroke-linecap:butt;stroke-linejoin:miter;stroke-opacity:1"
       xml:space="preserve"
       transform="scale(0.95664503,1.0453198)"><tspan
         sodipodi:role="line"
         id="tspan4852-5-6-5"
         x="448.13412"
         y="638.26849"
         style="font-style:normal;font-variant:normal;font-weight:normal;font-stretch:normal;font-size:35.2946px;line-height:1.25;font-family:Roboto;-inkscape-font-specification:Roboto;fill:#e0e0e0;fill-opacity:1;stroke-width:2.35297px">H</tspan></text>
    <path
       style="fill:none;fill-opacity:1;stroke:#e0e0e0;stroke-width:1.44125;stroke-linecap:round;stroke-linejoin:miter;stroke-miterlimit:4;stroke-dasharray:none;stroke-opacity:1;marker-end:url(#Arrow1Send37724022)"
       d="m 303.07549,558.80203 19.75436,0.008"
       id="path954" />
    <path
       style="fill:none;fill-opacity:1;stroke:#e0e0e0;stroke-width:1.44125;stroke-linecap:round;stroke-linejoin:miter;stroke-miterlimit:4;stroke-dasharray:none;stroke-opacity:1;marker-end:url(#Arrow1Send37724022-3)"
       d="m 277.94399,558.68551 -19.75436,-0.008"
       id="path954-7" />
    <text
       xml:space="preserve"
       style="font-style:normal;font-variant:normal;font-weight:normal;font-stretch:normal;font-size:21.7128px;line-height:1.25;font-family:Roboto;-inkscape-font-specification:Roboto;fill:#2560f5;fill-opacity:1;stroke:none;stroke-width:0.9375;filter:url(#filter121975)"
       x="165.85753"
       y="922.0885"
       id="text2971"
       transform="matrix(1.0182714,0,0,1.0545539,-29.343755,-43.586812)"><tspan
         sodipodi:role="line"
         id="tspan2969"
         style="font-style:normal;font-variant:normal;font-weight:normal;font-stretch:normal;font-size:21.7128px;font-family:Roboto;-inkscape-font-specification:Roboto;fill:#2560f5;fill-opacity:1;stroke-width:0.9375"
         x="165.85753"
         y="922.0885">True Negative</tspan></text>
    <text
       xml:space="preserve"
       style="font-style:normal;font-variant:normal;font-weight:normal;font-stretch:normal;font-size:22.5px;line-height:1.25;font-family:Roboto;-inkscape-font-specification:Roboto;fill:#ac4cf5;fill-opacity:1;stroke:none;stroke-width:0.960835"
       x="215.55452"
       y="1015.18"
       id="text2971-5"><tspan
         sodipodi:role="line"
         id="tspan2969-3"
         style="font-style:normal;font-variant:normal;font-weight:normal;font-stretch:normal;font-size:22.5px;font-family:Roboto;-inkscape-font-specification:Roboto;fill:#ac4cf5;fill-opacity:1;stroke-width:0.960835"
         x="215.55452"
         y="1015.18">False Negative</tspan></text>
    <text
       xml:space="preserve"
       style="font-style:normal;font-variant:normal;font-weight:normal;font-stretch:normal;font-size:21.9536px;line-height:1.25;font-family:Roboto;-inkscape-font-specification:Roboto;fill:#f53325;fill-opacity:1;stroke:none;stroke-width:0.9375;filter:url(#filter122005)"
       x="401.47223"
       y="853.23499"
       id="text2971-5-6"
       transform="matrix(1.0248912,0,0,1.0248912,-41.935162,-68.587679)"><tspan
         sodipodi:role="line"
         id="tspan2969-3-2"
         style="font-style:normal;font-variant:normal;font-weight:normal;font-stretch:normal;font-size:21.9536px;font-family:Roboto;-inkscape-font-specification:Roboto;fill:#f53325;fill-opacity:1;stroke-width:0.9375"
         x="401.47223"
         y="853.23499">True Positive</tspan></text>
    <text
       xml:space="preserve"
       style="font-style:normal;font-variant:normal;font-weight:normal;font-stretch:normal;font-size:22.5px;line-height:1.25;font-family:Roboto;-inkscape-font-specification:Roboto;fill:#f54c7f;fill-opacity:1;stroke:none;stroke-width:0.960835"
       x="695.7326"
       y="-59.092754"
       id="text2971-5-9"
       transform="rotate(69.544634)"><tspan
         sodipodi:role="line"
         id="tspan2969-3-1"
         style="font-style:normal;font-variant:normal;font-weight:normal;font-stretch:normal;font-size:22.5px;font-family:Roboto;-inkscape-font-specification:Roboto;fill:#f54c7f;fill-opacity:1;stroke-width:0.960835"
         x="695.7326"
         y="-59.092754">False Positive</tspan></text>
    <text
       xml:space="preserve"
       style="font-style:normal;font-variant:normal;font-weight:normal;font-stretch:normal;font-size:22.5px;line-height:1.25;font-family:Roboto;-inkscape-font-specification:Roboto;fill:#e0e0e0;fill-opacity:1;stroke:none;stroke-width:0.960835;filter:url(#filter44430)"
       x="304.89816"
       y="961.42072"
       id="text2971-5-2"><tspan
         sodipodi:role="line"
         id="tspan2969-3-7"
         style="font-style:normal;font-variant:normal;font-weight:normal;font-stretch:normal;font-size:22.5px;font-family:Roboto;-inkscape-font-specification:Roboto;fill:#e0e0e0;fill-opacity:1;stroke-width:0.960835"
         x="304.89816"
         y="961.42072">“Overlap”</tspan></text>
    <path
       style="fill:none;stroke:#e0e0e0;stroke-width:0.960835px;stroke-linecap:butt;stroke-linejoin:miter;stroke-opacity:1;marker-end:url(#Arrow1Send8850)"
       d="m 319.60515,698.00666 -7.05847,69.09853"
       id="path120463" />
  </g>
</svg>
